<?xml version="1.0" encoding="iso-8859-1"?>
<!-- Generator: Adobe Illustrator 18.0.0, SVG Export Plug-In . SVG Version: 6.00 Build 0)  -->
<!DOCTYPE svg PUBLIC "-//W3C//DTD SVG 1.1//EN" "http://www.w3.org/Graphics/SVG/1.1/DTD/svg11.dtd">
<svg version="1.1" id="owl-big-icon" xmlns="http://www.w3.org/2000/svg" xmlns:xlink="http://www.w3.org/1999/xlink" x="0px" y="0px"
	 viewBox="0 0 340.141 340.141" style="enable-background:new 0 0 340.141 340.141;" xml:space="preserve">
<g>
	<g>
		<path d="M229.459,220.636c-4.143,0-7.5,3.358-7.5,7.5c0,4.93-5.631,9.094-12.295,9.094c-6.666,0-12.297-4.164-12.297-9.094
			c0-4.142-3.357-7.5-7.5-7.5c-4.143,0-7.5,3.358-7.5,7.5c0,4.93-5.631,9.094-12.297,9.094s-12.299-4.164-12.299-9.094
			c0-4.142-3.357-7.5-7.5-7.5c-4.143,0-7.5,3.358-7.5,7.5c0,4.93-5.631,9.094-12.297,9.094c-6.664,0-12.295-4.164-12.295-9.094
			c0-4.142-3.357-7.5-7.5-7.5c-4.143,0-7.5,3.358-7.5,7.5c0,13.285,12.244,24.094,27.295,24.094c7.789,0,14.82-2.898,19.797-7.531
			c4.979,4.633,12.01,7.531,19.799,7.531c7.789,0,14.82-2.898,19.797-7.531c4.979,4.633,12.01,7.531,19.797,7.531
			c15.051,0,27.295-10.809,27.295-24.094C236.959,223.993,233.602,220.636,229.459,220.636z"/>
		<path d="M209.665,257.485c-4.143,0-7.5,3.357-7.5,7.5c0,4.93-5.631,9.094-12.297,9.094s-12.297-4.164-12.297-9.094
			c0-4.143-3.357-7.5-7.5-7.5c-4.143,0-7.5,3.357-7.5,7.5c0,4.93-5.631,9.094-12.299,9.094c-6.666,0-12.297-4.164-12.297-9.094
			c0-4.143-3.357-7.5-7.5-7.5c-4.143,0-7.5,3.357-7.5,7.5c0,13.285,12.246,24.094,27.297,24.094c7.789,0,14.82-2.898,19.799-7.531
			c4.979,4.633,12.01,7.531,19.797,7.531c15.053,0,27.297-10.809,27.297-24.094C217.165,260.843,213.807,257.485,209.665,257.485z"
			/>
		<path d="M310.532,119.397c0-27.918-12.719-53.6-34.445-70.438c12.697-12.098,24.094-24.775,32.342-37.345
			c2.061-3.14,1.48-7.319-1.357-9.78c-2.838-2.461-7.057-2.445-9.873,0.041c-11.445,10.091-46.426,34.074-70.512,24.013
			c-26.488-11.063-38.75-11.005-52.951-10.915c-1.193,0.007-6.137,0.007-7.328,0c-14.195-0.082-26.465-0.148-52.953,10.915
			C84.516,37.977,43.352,2.233,42.944,1.875c-2.818-2.484-7.039-2.499-9.875-0.04c-2.836,2.461-3.416,6.641-1.355,9.78
			c8.246,12.569,19.643,25.246,32.34,37.345C42.329,65.798,29.61,91.477,29.61,119.397c0,24.809,10.182,47.281,26.58,63.47
			c-6.17,16.162-17.18,52.329-3.223,75.972c6.584,11.155,17.547,18.023,32.598,20.477c5.186,9.174,12.527,17.366,21.492,24.137
			v19.488c0,9.484,8.557,17.201,19.072,17.201c10.518,0,19.074-7.717,19.074-17.201v-2.063c7.914,1.8,16.248,2.767,24.852,2.767
			l0.016-0.001c0.004,0,0.01,0.001,0.014,0.001c8.604,0,16.938-0.967,24.852-2.767v2.063c0,9.484,8.559,17.201,19.076,17.201
			c10.518,0,19.072-7.717,19.072-17.201v-19.489c8.965-6.771,16.307-14.963,21.49-24.136c15.053-2.453,26.016-9.322,32.602-20.48
			c13.957-23.645,2.945-59.808-3.227-75.968C300.35,166.68,310.532,144.206,310.532,119.397z M295.532,119.397
			c0,40.928-33.297,74.225-74.225,74.225c-13.225,0-26.027-3.473-37.332-10.07l4.381-15.613c9.4,6.402,20.746,10.15,32.951,10.15
			c32.361,0,58.689-26.329,58.689-58.691c0-20.407-10.66-39.1-27.467-49.691c4.137-3.396,8.252-6.881,12.297-10.441
			C284.149,73.222,295.532,95.309,295.532,119.397z M100.305,79.823c7.822,6.052,15.52,11.698,22.744,16.813
			c-1.367-0.253-2.775-0.392-4.215-0.392c-12.766,0-23.152,10.386-23.152,23.152c0,12.768,10.387,23.152,23.152,23.152
			c12.768,0,23.152-10.385,23.152-23.152c0-4.41-1.24-8.536-3.389-12.048c10.623,7.125,19.117,12.433,23.793,15.294
			c-1.668,22.58-20.559,40.445-43.557,40.445c-24.092,0-43.691-19.6-43.691-43.691C75.143,102.372,85.106,86.95,100.305,79.823z
			 M126.987,119.397c0,4.495-3.656,8.152-8.152,8.152c-4.494,0-8.152-3.657-8.152-8.152c0-4.495,3.658-8.152,8.152-8.152
			C123.331,111.245,126.987,114.902,126.987,119.397z M221.307,111.245c4.494,0,8.15,3.657,8.15,8.152
			c0,4.495-3.656,8.152-8.15,8.152c-4.494,0-8.152-3.657-8.152-8.152C213.155,114.902,216.813,111.245,221.307,111.245z
			 M221.307,142.55c12.766,0,23.15-10.385,23.15-23.152c0-12.767-10.385-23.152-23.15-23.152c-1.439,0-2.848,0.139-4.217,0.392
			c7.227-5.114,14.924-10.762,22.744-16.813c15.199,7.127,25.162,22.55,25.162,39.574c0,24.092-19.598,43.691-43.689,43.691
			c-22.998,0-41.889-17.865-43.559-40.445c4.678-2.861,13.172-8.17,23.797-15.296c-2.148,3.513-3.391,7.639-3.391,12.05
			C198.155,132.165,208.541,142.55,221.307,142.55z M170.069,152.753l5.135,6.543l-5.133,18.291l-5.133-18.292L170.069,152.753z
			 M119.235,39.73c23.676-9.889,33.494-9.842,47.088-9.757c1.219,0.007,6.275,0.007,7.496,0c13.578-0.085,23.412-0.132,47.086,9.757
			c14.609,6.099,30.584,3.706,44.775-1.606c-35.301,33.533-82.088,63.281-95.609,71.618c-13.523-8.337-60.309-38.085-95.609-71.617
			C88.649,43.434,104.625,45.829,119.235,39.73z M44.61,119.397c0-24.09,11.383-46.178,30.705-60.134
			c4.045,3.561,8.16,7.046,12.295,10.442C70.803,80.298,60.143,98.99,60.143,119.397c0,32.362,26.33,58.691,58.691,58.691
			c12.205,0,23.549-3.748,32.949-10.149l4.381,15.612c-11.305,6.598-24.105,10.07-37.33,10.07
			C77.907,193.622,44.61,160.325,44.61,119.397z M65.883,251.213c-9.607-16.275-2.533-43.377,2.59-58.204
			c2.734,1.877,5.576,3.604,8.518,5.172v49.17c0,5.012,0.6,9.91,1.73,14.654C73.01,259.667,68.764,256.093,65.883,251.213z
			 M130.204,322.94c0,0.776-1.547,2.201-4.074,2.201c-2.525,0-4.072-1.425-4.072-2.201v-10.25c2.633,1.305,5.352,2.505,8.147,3.595
			V322.94z M218.084,322.94c0,0.776-1.545,2.201-4.072,2.201c-2.527,0-4.076-1.425-4.076-2.201v-6.655
			c2.795-1.091,5.516-2.29,8.148-3.595V322.94z M170.084,308.643c-0.004,0-0.01,0.001-0.014,0.001l-0.016-0.001
			c-43.045,0-78.064-27.496-78.064-61.293v-42.857c8.477,2.68,17.494,4.129,26.844,4.129c14.588,0,28.754-3.512,41.496-10.223
			c0,0,2.131,12.896,7.629,14.469c0.676,0.193,1.359,0.281,2.029,0.281c0.027,0,0.053-0.006,0.08-0.007
			c0.027,0.001,0.053,0.007,0.08,0.007c0.67,0,1.348-0.112,2.029-0.28c4.803-1.182,7.631-14.47,7.631-14.47
			c12.74,6.711,26.91,10.223,41.498,10.223c9.35,0,18.367-1.449,26.842-4.129v42.857
			C248.149,281.147,213.129,308.643,170.084,308.643z M274.258,251.212c-2.881,4.881-7.127,8.455-12.838,10.793
			c1.129-4.744,1.728-9.643,1.728-14.654v-49.168c2.941-1.568,5.785-3.297,8.52-5.173
			C276.791,207.835,283.866,234.932,274.258,251.212z"/>
	</g>
</g>
<g>
</g>
<g>
</g>
<g>
</g>
<g>
</g>
<g>
</g>
<g>
</g>
<g>
</g>
<g>
</g>
<g>
</g>
<g>
</g>
<g>
</g>
<g>
</g>
<g>
</g>
<g>
</g>
<g>
</g>
</svg>
